<?xml version="1.0" encoding="UTF-8"?>
<svg xmlns="http://www.w3.org/2000/svg" xmlns:xlink="http://www.w3.org/1999/xlink" width="17px" height="18px" viewBox="0 0 17 18" version="1.1">
<defs>
<clipPath id="clip1">
  <path d="M 1 0.160156 L 16 0.160156 L 16 17.945312 L 1 17.945312 Z M 1 0.160156 "/>
</clipPath>
</defs>
<g id="surface1">
<g clip-path="url(#clip1)" clip-rule="nonzero">
<path style=" stroke:none;fill-rule:nonzero;fill:rgb(0%,0%,0%);fill-opacity:1;" d="M 2.425781 5.933594 C 2.136719 5.933594 1.890625 6.042969 1.691406 6.253906 C 1.488281 6.46875 1.390625 6.726562 1.390625 7.023438 L 1.390625 11.613281 C 1.390625 11.921875 1.488281 12.179688 1.691406 12.394531 C 1.890625 12.605469 2.136719 12.714844 2.425781 12.714844 C 2.710938 12.714844 2.957031 12.605469 3.152344 12.394531 C 3.351562 12.179688 3.449219 11.921875 3.449219 11.613281 L 3.449219 7.023438 C 3.449219 6.722656 3.347656 6.46875 3.148438 6.253906 C 2.945312 6.042969 2.707031 5.933594 2.425781 5.933594 Z M 10.742188 1.8125 L 11.457031 0.414062 C 11.503906 0.324219 11.488281 0.253906 11.40625 0.203125 C 11.320312 0.160156 11.253906 0.179688 11.207031 0.265625 L 10.484375 1.675781 C 9.847656 1.375 9.171875 1.226562 8.464844 1.226562 C 7.753906 1.226562 7.078125 1.375 6.445312 1.675781 L 5.71875 0.265625 C 5.671875 0.179688 5.605469 0.160156 5.519531 0.203125 C 5.4375 0.253906 5.421875 0.324219 5.46875 0.414062 L 6.183594 1.8125 C 5.460938 2.207031 4.882812 2.75 4.453125 3.453125 C 4.027344 4.152344 3.8125 4.921875 3.8125 5.753906 L 13.105469 5.753906 C 13.105469 4.921875 12.890625 4.152344 12.460938 3.453125 C 12.035156 2.75 11.460938 2.207031 10.742188 1.8125 Z M 6.621094 3.847656 C 6.542969 3.929688 6.449219 3.972656 6.34375 3.972656 C 6.234375 3.972656 6.144531 3.929688 6.070312 3.847656 C 6 3.765625 5.960938 3.664062 5.960938 3.554688 C 5.960938 3.441406 6 3.34375 6.070312 3.261719 C 6.144531 3.179688 6.234375 3.136719 6.34375 3.136719 C 6.449219 3.136719 6.542969 3.179688 6.621094 3.261719 C 6.695312 3.34375 6.734375 3.441406 6.734375 3.554688 C 6.738281 3.664062 6.695312 3.769531 6.621094 3.847656 Z M 10.855469 3.847656 C 10.78125 3.929688 10.691406 3.972656 10.582031 3.972656 C 10.476562 3.972656 10.382812 3.929688 10.304688 3.847656 C 10.230469 3.769531 10.1875 3.664062 10.191406 3.554688 C 10.191406 3.441406 10.230469 3.34375 10.308594 3.261719 C 10.382812 3.179688 10.476562 3.136719 10.582031 3.136719 C 10.691406 3.136719 10.78125 3.179688 10.855469 3.261719 C 10.929688 3.34375 10.964844 3.441406 10.964844 3.554688 C 10.964844 3.667969 10.929688 3.765625 10.855469 3.847656 Z M 3.851562 13.246094 C 3.851562 13.574219 3.957031 13.851562 4.171875 14.078125 C 4.386719 14.308594 4.648438 14.421875 4.957031 14.421875 L 5.699219 14.421875 L 5.710938 16.84375 C 5.710938 17.152344 5.808594 17.410156 6.011719 17.625 C 6.210938 17.835938 6.453125 17.945312 6.734375 17.945312 C 7.023438 17.945312 7.265625 17.835938 7.46875 17.625 C 7.667969 17.410156 7.769531 17.152344 7.769531 16.84375 L 7.769531 14.421875 L 9.15625 14.421875 L 9.15625 16.84375 C 9.15625 17.152344 9.257812 17.410156 9.457031 17.625 C 9.660156 17.835938 9.902344 17.945312 10.191406 17.945312 C 10.480469 17.945312 10.722656 17.835938 10.925781 17.625 C 11.125 17.410156 11.226562 17.152344 11.226562 16.84375 L 11.226562 14.421875 L 11.980469 14.421875 C 12.28125 14.421875 12.539062 14.308594 12.753906 14.082031 C 12.96875 13.851562 13.074219 13.574219 13.074219 13.246094 L 13.074219 6.136719 L 3.851562 6.136719 Z M 14.503906 5.933594 C 14.21875 5.933594 13.980469 6.039062 13.777344 6.25 C 13.578125 6.460938 13.476562 6.71875 13.476562 7.023438 L 13.476562 11.613281 C 13.476562 11.921875 13.578125 12.179688 13.777344 12.394531 C 13.980469 12.605469 14.222656 12.714844 14.503906 12.714844 C 14.789062 12.714844 15.035156 12.605469 15.234375 12.394531 C 15.4375 12.179688 15.535156 11.921875 15.535156 11.613281 L 15.535156 7.023438 C 15.535156 6.71875 15.4375 6.460938 15.234375 6.25 C 15.035156 6.039062 14.789062 5.933594 14.503906 5.933594 Z M 14.503906 5.933594 "/>
</g>
</g>
</svg>
