<svg width="33" height="32" viewBox="0 0 33 32" fill="none" xmlns="http://www.w3.org/2000/svg">
<path d="M32.5 16C32.5 24.8366 25.3366 32 16.5 32C7.66344 32 0.5 24.8366 0.5 16C0.5 7.16344 7.66344 0 16.5 0C25.3366 0 32.5 7.16344 32.5 16ZM3.7 16C3.7 23.0692 9.43075 28.8 16.5 28.8C23.5692 28.8 29.3 23.0692 29.3 16C29.3 8.93075 23.5692 3.2 16.5 3.2C9.43075 3.2 3.7 8.93075 3.7 16Z" fill="#EEF2FF"/>
<path d="M7.32278 2.89357C9.39111 1.44531 11.7728 0.507118 14.2732 0.155711C16.7736 -0.195696 19.3217 0.0496546 21.7091 0.871704C24.0965 1.69375 26.2554 3.06916 28.0094 4.88547C29.7634 6.70178 31.0626 8.90742 31.8009 11.3221C32.5391 13.7367 32.6954 16.2918 32.2569 18.7784C31.8185 21.265 30.7977 23.6125 29.2782 25.629C27.7586 27.6456 25.7834 29.2738 23.5139 30.3807C21.2445 31.4876 18.7453 32.0416 16.2208 31.9976L16.2766 28.798C18.2963 28.8333 20.2956 28.3901 22.1111 27.5046C23.9267 26.6191 25.5069 25.3165 26.7225 23.7032C27.9382 22.09 28.7548 20.212 29.1055 18.2227C29.4563 16.2334 29.3313 14.1894 28.7407 12.2576C28.1501 10.3259 27.1107 8.56142 25.7076 7.10837C24.3044 5.65533 22.5772 4.555 20.6673 3.89736C18.7574 3.23972 16.7189 3.04344 14.7186 3.32457C12.7183 3.60569 10.8129 4.35624 9.15822 5.51485L7.32278 2.89357Z" fill="#6366F1"/>
</svg>
